# xmcd CD database file
#
# Track frame offsets:
#	150
#	15765
#	29847
#	42302
#	60795
#	78420
#	92780
#	108427
#	121510
#	128542
#	149892
#	165780
#	178830
#	199065
#	216980
#	234200
#	251660
#	276455
#	288450
#	300990
#	317760
#
# Disc length: 4503 seconds
#
# Revision: 0
# Processed by: cddbd v1.5.1PL0 Copyright (c) Steve Scherf et al.
# Submitted via: CDex 1.60beta1
#
DISCID=1e119515
DTITLE=The Stompers - Record Album
DYEAR=2000
DGENRE=Blues
TTITLE0=This Is Rock 'N' Roll
TTITLE1=Coast to Coast
TTITLE2=I'm in Trouble
TTITLE3=American Fun
TTITLE4=Summergirls
TTITLE5=When I Kiss You
TTITLE6=First Kiss
TTITLE7=Streetboy and Angel Ann
TTITLE8=Rawlove
TTITLE9=The Heart Is a Lonely Hunter
TTITLE10=Your Sweet Love
TTITLE11=All I Want for Christmas Is a Rock 'N' Roll Guitar
TTITLE12=Never Tell an Angel
TTITLE13=One Heart for Sale
TTITLE14=Eastside Girl
TTITLE15=Dance With You
TTITLE16=Rescue Me
TTITLE17=After Dark
TTITLE18=The Successful Girl
TTITLE19=Just Like Rain
TTITLE20=Rock 'N' Roll
EXTD=YEAR: 2000
EXTT0=
EXTT1=
EXTT2=
EXTT3=
EXTT4=
EXTT5=
EXTT6=
EXTT7=
EXTT8=
EXTT9=
EXTT10=
EXTT11=
EXTT12=
EXTT13=
EXTT14=
EXTT15=
EXTT16=
EXTT17=
EXTT18=
EXTT19=
EXTT20=
PLAYORDER=
